<svg width="2113" height="218" viewBox="0 0 2113 218" fill="none" xmlns="http://www.w3.org/2000/svg">
<g clip-path="url(#clip0_1_724)">
<path d="M564 0H1237L934.123 2.64784e-05L686.206 4.81519e-05L591.31 5.6448e-05L564 0Z" fill="#F0F4FE"/>
<path fill-rule="evenodd" clip-rule="evenodd" d="M261.123 2.64784e-05L564 0H-141L-81.6898 5.6448e-05L-101.855 17.0001L-111.74 5.93031L-141 0V201H1587V3.61444L1541.09 11.8605L1520.93 2.37214L1456.08 14.2326L1451.33 5.93029L1414.17 14.2327L1359.21 4.81519e-05L1587 0H1237L1264.31 5.6448e-05L1244.14 17.0001L1234.26 5.93031L1232.37 5.54715L1223.16 11.8605L1215.65 2.3721L1181.64 5.93026L1175.71 8.69771L1142.1 8.69771L1136.17 5.93026L1119.96 8.69772L1098.21 2.37211L1048 11.8605L1029.02 2.37212L1016.37 5.93027L1007.27 2.37212L995.805 17.0001L974.058 5.93028L934.123 2.64784e-05L868.091 11.8605L847.925 2.37214L783.08 14.2326L778.335 5.93029L741.167 14.2327L686.206 4.81519e-05L638.758 14.2327L616.616 2.37216L607.522 11.8606L591.31 5.6448e-05L571.145 17.0001L561.26 5.93031L559.369 5.54714L550.161 11.8605L542.648 2.3721L508.644 5.93026L502.713 8.69771L469.104 8.69771L463.173 5.93026L446.961 8.69772L425.214 2.37211L374.998 11.8605L356.019 2.37212L343.366 5.93027L334.272 2.37212L322.805 17.0001L301.058 5.93028L261.123 2.64784e-05ZM13.2064 4.81519e-05L-81.6898 5.6448e-05L-65.4784 11.8606L-56.3842 2.37216L-34.2417 14.2327L13.2064 4.81519e-05ZM13.2064 4.81519e-05L68.1671 14.2327L105.335 5.93029L110.08 14.2326L174.925 2.37214L195.091 11.8605L261.123 2.64784e-05L13.2064 4.81519e-05ZM1264.31 5.6448e-05L1280.52 11.8606L1289.62 2.37216L1311.76 14.2327L1359.21 4.81519e-05L1264.31 5.6448e-05Z" fill="#F0F4FE"/>
<path d="M400.161 212.861L392.648 203.372L358.644 206.931L352.713 209.698H319.104L313.173 206.931L296.961 209.698L275.214 203.372L224.998 212.861L206.019 203.373L193.366 206.931L184.272 203.373L172.805 218L151.058 206.931L111.123 201L441.31 201L421.145 218L411.26 206.931L409.369 206.547L400.161 212.861Z" fill="#F0F4FE"/>
<path d="M536.207 201L488.758 215.233L466.616 203.373L457.522 212.861L441.31 201L536.207 201Z" fill="#F0F4FE"/>
<path d="M784.123 201L718.091 212.861L697.926 203.372L633.08 215.233L628.335 206.931L591.167 215.233L536.207 201L784.123 201Z" fill="#F0F4FE"/>
<path d="M1114.31 201L1094.14 218L1084.26 206.931L1082.37 206.547L1073.16 212.861L1065.65 203.372L1031.64 206.931L1025.71 209.698H992.104L986.173 206.931L969.961 209.698L948.214 203.372L897.998 212.861L879.019 203.372L866.366 206.931L857.272 203.372L845.805 218L824.058 206.931L784.123 201L1114.31 201Z" fill="#F0F4FE"/>
<path d="M1209.21 201L1161.76 215.233L1139.62 203.372L1130.52 212.861L1114.31 201L1209.21 201Z" fill="#F0F4FE"/>
<path d="M1457.12 201L1391.09 212.861L1370.93 203.372L1306.08 215.233L1301.33 206.93L1264.17 215.233L1209.21 201L1457.12 201Z" fill="#F0F4FE"/>
<path d="M1457.12 201L1587 201L1571 212.861L1552.02 203.372L1539.37 206.93L1530.27 203.372L1518.81 218L1497.06 206.93L1457.12 201Z" fill="#F0F4FE"/>
<path d="M-141 201L111.123 201L45.0909 212.861L24.9254 203.373L-39.9203 215.233L-44.6652 206.931L-81.8329 215.233L-141 201Z" fill="#F0F4FE"/>
<path d="M2291 0H2964L2661.12 2.64784e-05L2413.21 4.81519e-05L2318.31 5.6448e-05L2291 0Z" fill="#F0F4FE"/>
<path fill-rule="evenodd" clip-rule="evenodd" d="M1988.12 2.64784e-05L2291 0H1586L1645.31 5.6448e-05L1625.14 17.0001L1615.26 5.93031L1586 0V201H3314V3.61444L3268.09 11.8605L3247.93 2.37214L3183.08 14.2326L3178.33 5.93029L3141.17 14.2327L3086.21 4.81519e-05L3314 0H2964L2991.31 5.6448e-05L2971.14 17.0001L2961.26 5.93031L2959.37 5.54715L2950.16 11.8605L2942.65 2.3721L2908.64 5.93026L2902.71 8.69771L2869.1 8.69771L2863.17 5.93026L2846.96 8.69772L2825.21 2.37211L2775 11.8605L2756.02 2.37212L2743.37 5.93027L2734.27 2.37212L2722.81 17.0001L2701.06 5.93028L2661.12 2.64784e-05L2595.09 11.8605L2574.93 2.37214L2510.08 14.2326L2505.33 5.93029L2468.17 14.2327L2413.21 4.81519e-05L2365.76 14.2327L2343.62 2.37216L2334.52 11.8606L2318.31 5.6448e-05L2298.14 17.0001L2288.26 5.93031L2286.37 5.54714L2277.16 11.8605L2269.65 2.3721L2235.64 5.93026L2229.71 8.69771L2196.1 8.69771L2190.17 5.93026L2173.96 8.69772L2152.21 2.37211L2102 11.8605L2083.02 2.37212L2070.37 5.93027L2061.27 2.37212L2049.81 17.0001L2028.06 5.93028L1988.12 2.64784e-05ZM1740.21 4.81519e-05L1645.31 5.6448e-05L1661.52 11.8606L1670.62 2.37216L1692.76 14.2327L1740.21 4.81519e-05ZM1740.21 4.81519e-05L1795.17 14.2327L1832.33 5.93029L1837.08 14.2326L1901.93 2.37214L1922.09 11.8605L1988.12 2.64784e-05L1740.21 4.81519e-05ZM2991.31 5.6448e-05L3007.52 11.8606L3016.62 2.37216L3038.76 14.2327L3086.21 4.81519e-05L2991.31 5.6448e-05Z" fill="#F0F4FE"/>
<path d="M2127.16 212.861L2119.65 203.372L2085.64 206.931L2079.71 209.698H2046.1L2040.17 206.931L2023.96 209.698L2002.21 203.372L1952 212.861L1933.02 203.373L1920.37 206.931L1911.27 203.373L1899.81 218L1878.06 206.931L1838.12 201L2168.31 201L2148.14 218L2138.26 206.931L2136.37 206.547L2127.16 212.861Z" fill="#F0F4FE"/>
<path d="M2263.21 201L2215.76 215.233L2193.62 203.373L2184.52 212.861L2168.31 201L2263.21 201Z" fill="#F0F4FE"/>
<path d="M2511.12 201L2445.09 212.861L2424.93 203.372L2360.08 215.233L2355.33 206.931L2318.17 215.233L2263.21 201L2511.12 201Z" fill="#F0F4FE"/>
<path d="M2841.31 201L2821.14 218L2811.26 206.931L2809.37 206.547L2800.16 212.861L2792.65 203.372L2758.64 206.931L2752.71 209.698H2719.1L2713.17 206.931L2696.96 209.698L2675.21 203.372L2625 212.861L2606.02 203.372L2593.37 206.931L2584.27 203.372L2572.81 218L2551.06 206.931L2511.12 201L2841.31 201Z" fill="#F0F4FE"/>
<path d="M2936.21 201L2888.76 215.233L2866.62 203.372L2857.52 212.861L2841.31 201L2936.21 201Z" fill="#F0F4FE"/>
<path d="M3184.12 201L3118.09 212.861L3097.93 203.372L3033.08 215.233L3028.33 206.93L2991.17 215.233L2936.21 201L3184.12 201Z" fill="#F0F4FE"/>
<path d="M3184.12 201L3314 201L3298 212.861L3279.02 203.372L3266.37 206.93L3257.27 203.372L3245.81 218L3224.06 206.93L3184.12 201Z" fill="#F0F4FE"/>
<path d="M1586 201L1838.12 201L1772.09 212.861L1751.93 203.373L1687.08 215.233L1682.33 206.931L1645.17 215.233L1586 201Z" fill="#F0F4FE"/>
</g>
<defs>
<clipPath id="clip0_1_724">
<rect width="2274" height="218" fill="white" transform="translate(-141)"/>
</clipPath>
</defs>
</svg>
