<svg width="20" height="20" viewBox="0 0 20 20" fill="none" xmlns="http://www.w3.org/2000/svg">
<path d="M10 1C5.0374 1 1 5.03745 1 10.0001C1 14.9627 5.0374 19 10 19C14.9626 19 19 14.9627 19 10.0001C19 5.03745 14.9626 1 10 1ZM10 17.3636C5.93964 17.3636 2.63636 14.0604 2.63636 10.0001C2.63636 5.93975 5.93964 2.63636 10 2.63636C14.0604 2.63636 17.3636 5.93975 17.3636 10.0001C17.3636 14.0604 14.0603 17.3636 10 17.3636Z" fill="#36FCF0"/>
<path d="M9.99981 4.81824C9.39839 4.81824 8.90912 5.30784 8.90912 5.90964C8.90912 6.51089 9.39839 7.00006 9.99981 7.00006C10.6012 7.00006 11.0905 6.51089 11.0905 5.90964C11.0905 5.30784 10.6012 4.81824 9.99981 4.81824Z" fill="#36FCF0"/>
<path d="M10 8.63635C9.54815 8.63635 9.18182 9.00268 9.18182 9.45453V14.3636C9.18182 14.8155 9.54815 15.1818 10 15.1818C10.4519 15.1818 10.8182 14.8155 10.8182 14.3636V9.45453C10.8182 9.00268 10.4519 8.63635 10 8.63635Z" fill="#36FCF0"/>
</svg>
