<svg width="16" height="17" viewBox="0 0 16 17" fill="none" xmlns="http://www.w3.org/2000/svg">
<path d="M7.99999 1.30005C4.02991 1.30005 0.799988 4.53001 0.799988 8.50009C0.799988 12.4702 4.02991 15.7 7.99999 15.7C11.9701 15.7 15.2 12.4702 15.2 8.50009C15.2 4.53001 11.9701 1.30005 7.99999 1.30005ZM7.99999 14.391C4.7517 14.391 2.10908 11.7483 2.10908 8.50009C2.10908 5.25185 4.7517 2.60914 7.99999 2.60914C11.2483 2.60914 13.8909 5.25185 13.8909 8.50009C13.8909 11.7483 11.2482 14.391 7.99999 14.391Z" fill="#607E9D"/>
<path d="M7.99984 4.35461C7.51871 4.35461 7.12729 4.74629 7.12729 5.22773C7.12729 5.70874 7.51871 6.10007 7.99984 6.10007C8.48098 6.10007 8.87239 5.70874 8.87239 5.22773C8.87239 4.74629 8.48098 4.35461 7.99984 4.35461Z" fill="#607E9D"/>
<path d="M7.99997 7.40918C7.63849 7.40918 7.34543 7.70224 7.34543 8.06373V11.991C7.34543 12.3525 7.63849 12.6455 7.99997 12.6455C8.36146 12.6455 8.65452 12.3525 8.65452 11.991V8.06373C8.65452 7.70224 8.36146 7.40918 7.99997 7.40918Z" fill="#607E9D"/>
</svg>
