<svg width="36" height="41" viewBox="0 0 36 41" fill="none" xmlns="http://www.w3.org/2000/svg">
<path d="M34.5993 27.5239L30.9717 25.5239L32.6041 25.1602C33.511 24.9784 34.2366 23.8875 33.8738 22.9784C33.6924 22.0693 32.6041 21.3421 31.6972 21.7057C31.6972 21.7057 31.6972 21.7057 31.5159 21.7057L26.4372 23.1602L21.54 20.0693L26.4372 17.1602L31.5159 18.6148H32.06C33.1483 18.7966 34.0552 18.0693 34.0552 16.9784C34.2366 16.0693 33.511 15.1602 32.4228 14.9784L30.9717 14.6148L34.5993 12.433C35.5062 11.8875 35.6876 10.7966 35.3248 9.88752C34.7807 8.97843 33.6924 8.79661 32.7855 9.16024L28.7952 11.7057L29.3393 9.7057C29.7021 8.79661 29.1579 7.7057 28.0697 7.52388C27.1628 7.16024 26.0745 7.7057 25.8931 8.79661V8.97843L24.4421 14.433L19.7262 16.9784V11.1602L23.5352 7.34206C24.2607 6.61479 24.2607 5.52388 23.5352 4.79661C22.8097 4.06934 21.7214 4.06934 20.9959 4.79661L19.7262 6.06934V1.88752C19.7262 0.796609 19.0007 0.0693359 17.9124 0.0693359C16.8241 0.0693359 16.0986 0.796609 16.0986 1.88752V6.43297L14.6476 4.97843C13.9221 4.25115 12.8338 4.25115 12.1083 4.97843C11.3828 5.7057 11.3828 6.79661 12.1083 7.52388L16.0986 11.5239V16.9784L11.3828 14.2512L9.93172 8.79661C9.75035 7.7057 8.66207 7.16024 7.75517 7.34206C6.84828 7.7057 6.12276 8.61479 6.48552 9.52388V9.7057L7.02966 11.7057L3.03931 9.34206C2.31379 8.97843 1.04414 9.16024 0.681379 10.0693C0.318621 10.9784 0.5 12.0693 1.22552 12.6148L4.8531 14.6148L3.40207 15.1602C2.31379 15.3421 1.76966 16.2512 1.76966 17.1602C1.76966 18.0693 2.85793 18.7966 3.76483 18.7966H4.30897L9.38759 17.3421L14.2848 20.0693L9.38759 22.9784L4.30897 21.5239C3.40207 21.1602 2.31379 21.7057 1.95103 22.6148C1.58828 23.5239 2.13241 24.6148 3.03931 24.9784C3.22069 24.9784 3.22069 24.9784 3.40207 25.1602L5.03448 25.5239L1.4069 27.5239C0.5 28.0693 0.318621 29.1602 0.681379 30.0693C1.22552 30.9784 2.31379 31.1602 3.22069 30.7966L7.02966 28.433L6.48552 30.433C6.12276 31.3421 6.6669 32.433 7.75517 32.7966H8.29931C9.20621 32.7966 9.93172 32.2512 10.1131 31.5239L11.5641 26.0693L16.0986 23.3421V28.9784L12.2897 32.7966C11.5641 33.5239 11.5641 34.6148 12.2897 35.3421C12.6524 35.7057 13.0152 35.8875 13.5593 35.8875C14.1034 35.8875 14.4662 35.7057 14.829 35.3421L15.9172 34.2512V38.2512C15.9172 39.3421 16.6428 40.0693 17.731 40.0693C18.8193 40.0693 19.5448 39.3421 19.5448 38.2512V33.7057L20.9959 35.1602C21.7214 35.8875 22.8097 35.8875 23.5352 35.1602C24.2607 34.433 24.2607 33.3421 23.5352 32.6148L19.7262 28.6148V23.1602L24.4421 25.8875L25.8931 31.3421C26.0745 32.0693 26.8 32.7966 27.7069 32.6148H28.251C29.1579 32.433 29.8835 31.3421 29.5207 30.433L28.7952 28.433L32.6041 30.6148C33.511 31.1602 34.5993 30.7966 35.1435 29.8875C35.6876 29.1602 35.3248 28.0693 34.5993 27.5239Z" fill="url(#paint0_linear_1_608)"/>
<defs>
<linearGradient id="paint0_linear_1_608" x1="0.500001" y1="40.0693" x2="46.2678" y2="8.78277" gradientUnits="userSpaceOnUse">
<stop stop-color="#3837FD"/>
<stop offset="1" stop-color="#36FCF0"/>
</linearGradient>
</defs>
</svg>
