<svg width="16" height="16" viewBox="0 0 16 16" fill="none" xmlns="http://www.w3.org/2000/svg">
<path d="M8.00318 0.800049C4.03554 0.800049 0.799988 4.03561 0.799988 8.00324C0.799988 11.9709 4.03554 15.2 8.00318 15.2C11.9708 15.2 15.2 11.9709 15.2 8.00324C15.2005 7.91677 15.1839 7.83106 15.151 7.75105C15.1182 7.67105 15.0699 7.59835 15.0088 7.53714C14.9477 7.47594 14.8751 7.42745 14.7951 7.39447C14.7152 7.3615 14.6295 7.3447 14.5431 7.34504C14.457 7.34537 14.3719 7.36267 14.2925 7.39595C14.2132 7.42922 14.1412 7.47782 14.0806 7.53896C14.0201 7.60009 13.9722 7.67257 13.9397 7.75224C13.9072 7.83191 13.8907 7.9172 13.8912 8.00324C13.8912 11.2636 11.2635 13.8913 8.00318 13.8913C4.74284 13.8913 2.10873 11.2636 2.10873 8.00324C2.10873 4.7429 4.74284 2.10879 8.00318 2.10879C8.17585 2.10812 8.34125 2.03923 8.46334 1.91714C8.58543 1.79504 8.65432 1.62964 8.655 1.45698C8.65533 1.37104 8.63874 1.28588 8.60616 1.20636C8.57359 1.12684 8.52567 1.05452 8.46514 0.993516C8.40462 0.932514 8.33267 0.884032 8.2534 0.850837C8.17414 0.817642 8.08911 0.800384 8.00318 0.800049ZM10.4865 1.2921C10.231 1.29458 9.98981 1.44713 9.88705 1.69853C9.74912 2.03334 9.90832 2.41656 10.2436 2.55356C10.2513 2.55677 10.2562 2.56098 10.2627 2.5637C10.5975 2.70541 10.9839 2.54688 11.1228 2.21095C11.2613 1.87748 11.1033 1.49482 10.7701 1.35592C10.7607 1.35197 10.7503 1.34529 10.742 1.34183C10.6583 1.30735 10.5716 1.29124 10.4865 1.2921ZM12.6157 2.7082C12.4433 2.70963 12.2784 2.77884 12.1569 2.90119C11.9 3.15697 11.9 3.57329 12.1569 3.82907C12.1623 3.83451 12.1656 3.83772 12.171 3.84316C12.4254 4.10141 12.8418 4.10386 13.0989 3.84836C13.3558 3.59258 13.3558 3.17626 13.0989 2.92048C13.0922 2.9138 13.0865 2.90787 13.0798 2.90144C12.9571 2.7779 12.7899 2.70835 12.6157 2.7082ZM8.00318 3.41881C7.91671 3.4183 7.831 3.43494 7.75099 3.46776C7.67099 3.50058 7.59829 3.54892 7.53708 3.61001C7.47588 3.6711 7.42739 3.74371 7.39441 3.82365C7.36144 3.90358 7.34464 3.98927 7.34498 4.07574V8.00324C7.34532 8.12469 7.37946 8.24365 7.44356 8.3468C7.50767 8.44995 7.59921 8.53323 7.70795 8.58732L10.3254 9.89606C10.4024 9.93466 10.4863 9.95768 10.5722 9.96379C10.6581 9.9699 10.7444 9.95899 10.8261 9.93167C10.9078 9.90436 10.9833 9.86119 11.0483 9.80464C11.1133 9.74808 11.1664 9.67926 11.2047 9.60211C11.2433 9.5251 11.2664 9.44123 11.2725 9.35531C11.2786 9.26939 11.2677 9.1831 11.2404 9.10141C11.213 9.01971 11.1699 8.94422 11.1133 8.87924C11.0568 8.81427 10.9879 8.76111 10.9108 8.72279L8.655 7.59682V4.07574C8.65533 3.9898 8.63874 3.90465 8.60616 3.82513C8.57359 3.7456 8.52567 3.67328 8.46514 3.61228C8.40462 3.55128 8.33267 3.50279 8.2534 3.4696C8.17414 3.4364 8.08911 3.41915 8.00318 3.41881ZM14.0459 4.82596C13.9602 4.82547 13.873 4.84179 13.789 4.87709C13.453 5.01598 13.2945 5.40242 13.4362 5.73723C13.4395 5.74514 13.4437 5.74959 13.4464 5.75627C13.5834 6.09146 13.9666 6.25206 14.3014 6.11413C14.6366 5.97714 14.7972 5.59391 14.6593 5.2591C14.6556 5.2502 14.6524 5.24278 14.6491 5.23486C14.5464 4.98147 14.3029 4.82745 14.0459 4.82596Z" fill="#36FCF0"/>
</svg>
